<?xml version="1.0" encoding="UTF-8" standalone="no"?>
<!DOCTYPE svg PUBLIC "-//W3C//DTD SVG 1.1//EN" "http://www.w3.org/Graphics/SVG/1.1/DTD/svg11.dtd">
<svg width="100%" height="100%" viewBox="0 0 75 75" version="1.1" xmlns="http://www.w3.org/2000/svg" xmlns:xlink="http://www.w3.org/1999/xlink" xml:space="preserve" xmlns:serif="http://www.serif.com/" style="fill-rule:evenodd;clip-rule:evenodd;stroke-linejoin:round;stroke-miterlimit:2;">
    <g transform="matrix(1.33333,0,0,1.33333,-5.33333,-5.33333)">
        <g transform="matrix(0.0369725,0,0,0.0369725,-13.8518,-32.8475)">
            <g id="icon">
                <g>
                    <g transform="matrix(1.03224,0,0,1.03224,-138.031,315.276)">
                        <circle cx="1335.15" cy="1393.73" r="733.668" style="fill:rgb(252,231,230);"/>
                    </g>
                    <g transform="matrix(0.964842,0,0,0.990353,367.081,246.104)">
                        <path d="M684.515,1173.75C817.695,1173.75 1171.05,1470.08 1171.05,1569.12C1171.05,1668.16 926.167,1593.11 787.51,1543.25C703.794,1513.15 563.598,1441.55 443.208,1325.48C400.147,1283.96 551.334,1173.75 684.515,1173.75Z" style="fill:rgb(70,41,39);"/>
                    </g>
                    <g transform="matrix(1.13905,0,0,1,72.1577,165.488)">
                        <path d="M1055.57,1327.62C1055.57,1327.62 1055.55,1373.53 1019.95,1425.95C922.497,1569.46 849.593,1870.84 870.99,2011.35C886.327,2112.06 953.699,2195.93 1055.57,2195.93C1157.45,2195.93 1194.27,2115.57 1212.58,2015.36C1238.62,1872.78 1164.24,1572.06 1083.92,1420.15C1056.38,1368.06 1055.57,1327.62 1055.57,1327.62Z" style="fill:rgb(209,122,118);"/>
                    </g>
                    <g transform="matrix(0.925266,0,0,1,72.0594,301.268)">
                        <path d="M1310.42,1277.32C1307.6,1281.55 1304.5,1285.82 1301.17,1290.17C1200.79,1421.35 1167.8,1696.22 1184.57,1865.37C1193.76,1958.16 1212.6,2045.19 1311.9,2058.23C1302.59,2059.5 1292.72,2060.15 1282.24,2060.15C1166.2,2060.15 1089.46,1976.28 1071.99,1875.57C1047.62,1735.06 1130.66,1433.68 1241.67,1290.17C1282.22,1237.75 1282.24,1191.84 1282.24,1191.84C1282.24,1191.84 1283.07,1228.67 1310.42,1277.32Z" style="fill:rgb(105,61,59);"/>
                    </g>
                    <g transform="matrix(1.04477,0,0,0.912432,-43.0717,434.113)">
                        <path d="M1591.43,1571.54C1795.81,1473.66 1520.4,745.333 1186.88,782.046C970.269,805.891 746.832,1216.62 804.054,1210.07C995.242,1188.17 1077.66,1304.78 1154.36,1377.61C1217.67,1437.74 1426.48,1650.54 1591.43,1571.54Z" style="fill:rgb(174,102,98);"/>
                    </g>
                    <g transform="matrix(1,0,0,1,407.948,144.861)">
                        <circle cx="644.614" cy="1189.85" r="37.936" style="fill:rgb(252,231,230);"/>
                    </g>
                    <g transform="matrix(1.20057,0,0,1.20057,362.14,70.2313)">
                        <circle cx="644.614" cy="1189.85" r="37.936" style="fill:rgb(252,231,230);"/>
                    </g>
                    <g transform="matrix(1,0,0,1,-7.7351,301.268)">
                        <path d="M1265.25,847.459C1096.91,864.57 945.293,1074.11 903.696,1135.6C858.438,1202.5 1007.25,1256.66 1067.72,1301.49C1118.37,1339.02 1171.64,1382.84 1208.43,1421.22C1193.06,1408.65 1183.74,1395.56 1174.15,1387.61C1114.02,1337.74 1047.08,1267.6 934.737,1243.03C897.361,1234.85 854.579,1231.96 804.714,1236.95C744.93,1242.93 978.37,868.166 1204.68,846.409C1225.11,844.445 1245.33,844.881 1265.25,847.459ZM1391.83,1542.65C1428.16,1558.4 1468.01,1571.94 1509.03,1580C1469.4,1574.49 1429.66,1560.66 1391.83,1542.65Z" style="fill:rgb(105,61,59);"/>
                    </g>
                    <g transform="matrix(-2.57928,0.000795834,-0.000398235,-1.29067,2866.07,3876.47)">
                        <path d="M487.506,1678.2C487.506,1678.2 463.522,1726.76 487.847,1832.28C512.496,1939.21 555.287,1880.73 519.459,1820.6C491.287,1773.32 487.506,1678.2 487.506,1678.2Z" style="fill:white;"/>
                    </g>
                </g>
            </g>
        </g>
    </g>
</svg>
